<?xml version="1.0" encoding="UTF-8" standalone="no"?>
<!DOCTYPE svg PUBLIC "-//W3C//DTD SVG 1.1//EN" "http://www.w3.org/Graphics/SVG/1.1/DTD/svg11.dtd">
<svg width="100%" height="100%" viewBox="0 0 1024 1024" version="1.1" xmlns="http://www.w3.org/2000/svg" xmlns:xlink="http://www.w3.org/1999/xlink" xml:space="preserve" xmlns:serif="http://www.serif.com/" style="fill-rule:evenodd;clip-rule:evenodd;stroke-linejoin:round;stroke-miterlimit:2;">
    <g transform="matrix(1,0,0,1,-2248,0)">
        <g transform="matrix(1,0,0,1,2248,0)">
            <rect id="logo-dark" serif:id="logo dark" x="0" y="0" width="1024" height="1024" style="fill:none;"/>
            <clipPath id="_clip1">
                <rect id="logo-dark1" serif:id="logo dark" x="0" y="0" width="1024" height="1024"/>
            </clipPath>
            <g clip-path="url(#_clip1)">
                <g>
                    <g transform="matrix(9.03111,0,0,9.03111,236.794,-51.2)">
                        <path d="M48.19,23.994C48.592,23.994 48.994,24.042 49.391,24.139C50.214,24.339 51.009,24.746 51.732,25.335C52.454,25.925 53.102,26.696 53.636,27.603C54.169,28.509 54.589,29.551 54.868,30.662C55.007,31.218 55.112,31.791 55.18,32.372C55.214,32.663 55.239,32.956 55.256,33.251C55.272,33.545 55.277,33.839 55.277,34.134C55.275,38.853 55.276,43.569 55.276,48.288C55.276,53.006 55.276,57.723 55.276,62.441C55.276,81.313 55.276,100.184 55.276,119.055L48.189,119.055C48.189,100.184 48.189,81.313 48.189,62.441C48.189,57.723 48.189,53.006 48.19,48.288C48.19,43.569 48.189,38.853 48.19,34.134C48.19,33.839 48.185,33.545 48.169,33.251C48.153,32.956 48.128,32.663 48.094,32.372C48.025,31.791 47.92,31.218 47.781,30.662C47.502,29.551 47.083,28.509 46.549,27.603C46.016,26.697 45.368,25.926 44.646,25.336C45.344,24.767 46.109,24.367 46.902,24.16C47.327,24.049 47.758,23.994 48.19,23.994Z" style="fill:white;stroke:white;stroke-width:0.78px;"/>
                    </g>
                    <g transform="matrix(9.03111,0,0,9.03111,236.794,-51.2)">
                        <path d="M41.103,23.994L48.19,23.994C47.758,23.994 47.327,24.049 46.902,24.16C46.109,24.367 45.344,24.767 44.646,25.336C44.622,25.356 44.597,25.377 44.572,25.397C43.855,25.999 43.214,26.782 42.688,27.698C42.162,28.614 41.752,29.661 41.483,30.778C41.348,31.336 41.248,31.911 41.185,32.494C41.153,32.785 41.131,33.079 41.117,33.373C41.103,33.667 41.102,33.963 41.102,34.258C41.103,35.437 41.103,36.616 41.103,37.796C41.103,40.155 41.103,42.513 41.103,44.872C41.103,49.59 41.103,54.308 41.103,59.026L41.103,87.332C41.103,87.922 41.103,88.512 41.103,89.102C41.103,89.397 41.103,89.691 41.103,89.986C41.103,90.281 41.104,90.577 41.102,90.871C41.1,91.165 41.089,91.461 41.072,91.753C41.055,92.045 41.03,92.334 40.998,92.621C40.934,93.194 40.842,93.749 40.723,94.276C40.486,95.33 40.142,96.262 39.724,96.982C39.307,97.703 38.816,98.211 38.3,98.457C38.057,98.574 37.808,98.632 37.56,98.632L30.473,98.632C30.722,98.632 30.97,98.574 31.213,98.457C31.729,98.211 32.22,97.703 32.638,96.982C33.055,96.262 33.399,95.33 33.637,94.276C33.756,93.749 33.848,93.194 33.911,92.621C33.943,92.334 33.968,92.045 33.985,91.753C34.003,91.461 34.013,91.165 34.015,90.871C34.017,90.577 34.016,90.281 34.016,89.986C34.016,89.691 34.016,89.397 34.016,89.102C34.016,88.512 34.016,87.922 34.016,87.332L34.016,59.026C34.016,54.308 34.016,49.59 34.016,44.872C34.016,42.513 34.016,40.155 34.016,37.796C34.016,36.616 34.017,35.437 34.016,34.258C34.016,34.16 34.016,34.063 34.016,33.966C34.018,33.768 34.021,33.57 34.031,33.373C34.044,33.079 34.067,32.785 34.098,32.494C34.162,31.911 34.261,31.336 34.396,30.778C34.666,29.661 35.075,28.614 35.601,27.698C36.127,26.782 36.768,25.999 37.486,25.397C38.203,24.795 38.995,24.375 39.816,24.16C40.241,24.049 40.672,23.994 41.103,23.994Z" style="stroke:white;stroke-width:0.78px;"/>
                    </g>
                    <g transform="matrix(9.03111,0,0,9.03111,236.794,-51.2)">
                        <path d="M26.93,23.994C27.314,23.994 27.698,24.038 28.077,24.126C28.899,24.316 29.698,24.715 30.424,25.296C31.15,25.878 31.801,26.642 32.34,27.542C32.879,28.443 33.304,29.478 33.589,30.588C33.731,31.142 33.839,31.713 33.911,32.294C33.947,32.585 33.973,32.878 33.991,33.172C34.007,33.436 34.015,33.7 34.016,33.966C34.016,34.063 34.016,34.16 34.016,34.258C34.017,35.437 34.016,36.616 34.016,37.796C34.016,40.155 34.016,42.513 34.016,44.872C34.016,49.59 34.016,54.308 34.016,59.026L34.016,87.332C34.016,87.922 34.016,88.512 34.016,89.102C34.016,89.397 34.016,89.691 34.016,89.986C34.016,90.281 34.017,90.577 34.015,90.871C34.013,91.165 34.003,91.461 33.985,91.753C33.968,92.045 33.943,92.334 33.911,92.621C33.848,93.194 33.756,93.749 33.637,94.276C33.399,95.33 33.055,96.262 32.638,96.982C32.22,97.703 31.729,98.211 31.213,98.457C30.97,98.574 30.722,98.632 30.473,98.632C30.194,98.632 29.915,98.559 29.644,98.413C29.132,98.137 28.647,97.601 28.237,96.856C27.828,96.112 27.495,95.162 27.269,94.095C27.157,93.561 27.071,93.001 27.014,92.424C26.985,92.136 26.964,91.845 26.95,91.552C26.936,91.259 26.929,90.964 26.929,90.669C26.93,90.079 26.93,89.49 26.93,88.9C26.93,88.31 26.93,87.72 26.93,87.131L26.93,83.593L26.93,41.132L26.93,37.594C26.93,37.004 26.93,36.415 26.93,35.825C26.93,35.235 26.929,34.645 26.93,34.055C26.93,33.76 26.922,33.466 26.904,33.172C26.887,32.878 26.86,32.585 26.824,32.294C26.753,31.713 26.645,31.142 26.502,30.588C26.217,29.478 25.792,28.443 25.253,27.542C24.726,26.662 24.092,25.913 23.386,25.336C24.067,24.78 24.815,24.386 25.587,24.175C26.029,24.054 26.48,23.994 26.93,23.994Z" style="fill:white;stroke:white;stroke-width:0.78px;"/>
                    </g>
                    <g transform="matrix(9.03111,0,0,9.03111,236.794,-51.2)">
                        <path d="M19.844,23.994L26.93,23.994C26.48,23.994 26.029,24.054 25.587,24.175C24.815,24.386 24.067,24.78 23.386,25.336C23.345,25.37 23.305,25.404 23.264,25.438C22.551,26.048 21.914,26.838 21.393,27.759C20.873,28.681 20.468,29.734 20.205,30.853C20.074,31.413 19.977,31.988 19.917,32.572C19.887,32.864 19.866,33.159 19.854,33.452C19.842,33.746 19.843,34.042 19.843,34.337C19.843,35.516 19.843,36.696 19.843,37.875C19.843,40.234 19.843,42.592 19.843,44.951L19.843,59.104L19.843,87.412C19.843,88.002 19.843,88.59 19.843,89.18C19.843,89.475 19.843,89.771 19.843,90.066C19.842,90.361 19.845,90.655 19.841,90.95C19.826,92.13 19.69,93.299 19.448,94.347C19.205,95.395 18.857,96.319 18.436,97.03C18.015,97.741 17.523,98.239 17.006,98.474C16.774,98.579 16.537,98.632 16.3,98.632L9.214,98.632C9.45,98.632 9.687,98.579 9.919,98.474C10.436,98.239 10.929,97.741 11.35,97.03C11.77,96.319 12.119,95.395 12.361,94.347C12.603,93.299 12.739,92.13 12.754,90.95C12.758,90.655 12.756,90.361 12.756,90.066C12.757,89.771 12.756,89.475 12.756,89.18C12.756,88.59 12.756,88.002 12.756,87.412L12.756,59.104L12.756,44.951C12.756,42.592 12.756,40.234 12.756,37.875C12.756,36.696 12.756,35.516 12.756,34.337C12.756,34.239 12.756,34.14 12.756,34.042C12.757,33.845 12.759,33.648 12.767,33.452C12.78,33.159 12.8,32.864 12.83,32.572C12.89,31.988 12.987,31.413 13.118,30.853C13.381,29.734 13.786,28.681 14.307,27.759C14.827,26.838 15.464,26.048 16.178,25.438C16.891,24.828 17.682,24.398 18.5,24.175C18.942,24.054 19.393,23.994 19.844,23.994Z" style="stroke:white;stroke-width:0.78px;"/>
                    </g>
                    <g transform="matrix(9.03111,0,0,9.03111,236.794,-51.2)">
                        <path d="M9.214,98.632C8.923,98.632 8.632,98.552 8.35,98.394C7.838,98.106 7.357,97.56 6.95,96.807C6.544,96.053 6.215,95.094 5.995,94.023C5.884,93.487 5.801,92.924 5.746,92.347C5.719,92.058 5.699,91.767 5.686,91.473C5.673,91.179 5.669,90.886 5.669,90.59C5.67,90 5.67,89.41 5.67,88.82C5.67,88.231 5.67,87.641 5.67,87.051L5.67,83.513L5.67,5.669L12.756,5.669L12.756,34.042C12.756,34.14 12.756,34.239 12.756,34.337C12.756,35.516 12.756,36.696 12.756,37.875C12.756,40.234 12.756,42.592 12.756,44.951L12.756,59.104L12.756,87.412C12.756,88.002 12.756,88.59 12.756,89.18C12.756,89.475 12.757,89.771 12.756,90.066C12.756,90.361 12.758,90.655 12.754,90.95C12.739,92.13 12.603,93.299 12.361,94.347C12.119,95.395 11.77,96.319 11.35,97.03C10.929,97.741 10.436,98.239 9.919,98.474C9.687,98.579 9.45,98.632 9.214,98.632Z" style="fill:white;stroke:white;stroke-width:0.78px;"/>
                    </g>
                    <g id="SPLINE" transform="matrix(9.03111,0,0,9.03111,-2741.51,4947.23)">
                        <path d="M342.539,-547.799C342.539,-538.341 342.539,-528.883 342.539,-519.426" style="fill:none;stroke:white;stroke-width:0.78px;stroke-linecap:round;"/>
                    </g>
                    <g id="SPLINE1" serif:id="SPLINE" transform="matrix(9.03111,0,0,9.03111,-2741.51,4947.23)">
                        <path d="M385.058,-434.413L377.972,-434.413" style="fill:none;stroke:white;stroke-width:0.78px;stroke-linecap:round;"/>
                    </g>
                    <g id="SPLINE2" serif:id="SPLINE" transform="matrix(9.03111,0,0,9.03111,-2741.51,4947.23)">
                        <path d="M377.972,-434.413C377.972,-453.285 377.972,-472.155 377.972,-491.027C377.972,-495.745 377.972,-500.462 377.972,-505.181C377.972,-509.899 377.971,-514.615 377.973,-519.334C377.973,-519.629 377.967,-519.923 377.951,-520.218C377.935,-520.512 377.91,-520.805 377.876,-521.096C377.808,-521.677 377.703,-522.25 377.564,-522.806C377.285,-523.917 376.865,-524.959 376.331,-525.865C375.798,-526.771 375.151,-527.542 374.429,-528.132" style="fill:none;stroke:white;stroke-width:0.78px;stroke-linecap:round;"/>
                    </g>
                    <g id="SPLINE3" serif:id="SPLINE" transform="matrix(9.03111,0,0,9.03111,-2741.51,4947.23)">
                        <path d="M335.452,-547.799L342.539,-547.799" style="fill:none;stroke:white;stroke-width:0.78px;stroke-linecap:round;"/>
                    </g>
                    <g id="SPLINE4" serif:id="SPLINE" transform="matrix(9.03111,0,0,9.03111,-2741.51,4947.23)">
                        <path d="M346.083,-454.837C343.721,-454.837 341.358,-454.837 338.996,-454.837" style="fill:none;stroke:white;stroke-width:0.78px;stroke-linecap:round;"/>
                    </g>
                    <g id="SPLINE5" serif:id="SPLINE" transform="matrix(9.03111,0,0,9.03111,-2741.51,4947.23)">
                        <path d="M367.342,-454.837C364.98,-454.837 362.618,-454.837 360.256,-454.837" style="fill:none;stroke:white;stroke-width:0.78px;stroke-linecap:round;"/>
                    </g>
                    <g id="SPLINE6" serif:id="SPLINE" transform="matrix(9.03111,0,0,9.03111,-2741.51,4947.23)">
                        <path d="M349.626,-529.474C351.988,-529.474 354.35,-529.474 356.713,-529.474" style="fill:none;stroke:white;stroke-width:0.78px;stroke-linecap:round;"/>
                    </g>
                    <g id="SPLINE7" serif:id="SPLINE" transform="matrix(9.03111,0,0,9.03111,-2741.51,4947.23)">
                        <path d="M370.885,-529.474C373.248,-529.474 375.61,-529.474 377.972,-529.474" style="fill:none;stroke:white;stroke-width:0.78px;stroke-linecap:round;"/>
                    </g>
                    <g id="SPLINE8" serif:id="SPLINE" transform="matrix(9.03111,0,0,9.03111,-2741.51,4947.23)">
                        <path d="M338.996,-454.837C338.705,-454.837 338.414,-454.916 338.132,-455.074C337.621,-455.362 337.139,-455.908 336.733,-456.661C336.327,-457.415 335.997,-458.374 335.777,-459.445C335.667,-459.981 335.583,-460.544 335.529,-461.121C335.501,-461.41 335.482,-461.701 335.469,-461.995C335.456,-462.29 335.451,-462.583 335.452,-462.878C335.453,-463.468 335.452,-464.058 335.452,-464.648C335.452,-465.237 335.452,-465.827 335.452,-466.417C335.452,-467.596 335.452,-468.776 335.452,-469.955C335.452,-472.314 335.452,-474.673 335.452,-477.032C335.452,-481.75 335.452,-486.468 335.452,-491.186C335.452,-510.057 335.452,-528.926 335.452,-547.799" style="fill:none;stroke:white;stroke-width:0.78px;stroke-linecap:round;"/>
                    </g>
                    <g id="SPLINE9" serif:id="SPLINE" transform="matrix(9.03111,0,0,9.03111,-2741.51,4947.23)">
                        <path d="M360.256,-454.837C359.977,-454.837 359.698,-454.91 359.427,-455.055C358.914,-455.331 358.429,-455.867 358.02,-456.612C357.61,-457.356 357.277,-458.306 357.052,-459.373C356.939,-459.907 356.853,-460.467 356.796,-461.044C356.768,-461.332 356.746,-461.623 356.732,-461.916C356.718,-462.209 356.712,-462.504 356.712,-462.799C356.712,-463.389 356.712,-463.978 356.712,-464.568C356.712,-465.158 356.712,-465.748 356.712,-466.337C356.712,-467.517 356.712,-468.697 356.712,-469.876C356.712,-472.233 356.712,-474.594 356.712,-476.953C356.712,-481.671 356.712,-500.541 356.712,-505.26C356.712,-507.619 356.712,-509.977 356.712,-512.336C356.712,-513.515 356.712,-514.695 356.712,-515.875C356.712,-516.464 356.712,-517.053 356.712,-517.643C356.712,-518.234 356.712,-518.823 356.712,-519.413C356.713,-519.708 356.705,-520.002 356.687,-520.296C356.669,-520.59 356.643,-520.883 356.607,-521.174C356.535,-521.755 356.427,-522.326 356.285,-522.881C355.999,-523.99 355.574,-525.025 355.036,-525.926C354.509,-526.806 353.875,-527.555 353.169,-528.132" style="fill:none;stroke:white;stroke-width:0.78px;stroke-linecap:round;"/>
                    </g>
                    <g id="SPLINE10" serif:id="SPLINE" transform="matrix(9.03111,0,0,9.03111,-2741.51,4947.23)">
                        <path d="M356.713,-529.474C357.097,-529.474 357.481,-529.43 357.859,-529.343C358.681,-529.152 359.48,-528.754 360.206,-528.172C360.932,-527.59 361.583,-526.827 362.122,-525.926C362.661,-525.025 363.086,-523.99 363.371,-522.881C363.514,-522.326 363.622,-521.755 363.693,-521.174C363.729,-520.883 363.756,-520.59 363.774,-520.296C363.789,-520.032 363.797,-519.768 363.799,-519.503" style="fill:none;stroke:white;stroke-width:0.78px;stroke-linecap:round;"/>
                    </g>
                    <g id="SPLINE11" serif:id="SPLINE" transform="matrix(9.03111,0,0,9.03111,-2741.51,4947.23)">
                        <path d="M377.972,-529.474C378.374,-529.474 378.776,-529.426 379.173,-529.33C379.996,-529.129 380.792,-528.722 381.514,-528.133C382.237,-527.543 382.884,-526.772 383.418,-525.865C383.952,-524.959 384.371,-523.917 384.65,-522.806C384.789,-522.25 384.894,-521.677 384.963,-521.096C384.997,-520.805 385.022,-520.512 385.038,-520.218C385.054,-519.923 385.059,-519.629 385.059,-519.334C385.058,-514.615 385.059,-509.899 385.059,-505.181C385.058,-500.462 385.059,-495.745 385.058,-491.027C385.058,-472.155 385.058,-453.285 385.058,-434.413" style="fill:none;stroke:white;stroke-width:0.78px;stroke-linecap:round;"/>
                    </g>
                    <g id="SPLINE12" serif:id="SPLINE" transform="matrix(9.03111,0,0,9.03111,-2741.51,4947.23)">
                        <path d="M346.083,-454.837C346.319,-454.837 346.556,-454.889 346.788,-454.995C347.305,-455.23 347.798,-455.727 348.219,-456.438C348.639,-457.149 348.988,-458.073 349.23,-459.121C349.472,-460.169 349.608,-461.339 349.623,-462.518C349.627,-462.813 349.625,-463.108 349.625,-463.402C349.626,-463.697 349.625,-463.993 349.625,-464.288C349.625,-464.878 349.625,-465.466 349.625,-466.056C349.625,-475.493 349.625,-484.926 349.625,-494.364C349.625,-499.083 349.625,-503.797 349.625,-508.517C349.625,-510.877 349.625,-513.234 349.625,-515.593C349.625,-516.772 349.625,-517.952 349.625,-519.131C349.625,-519.426 349.624,-519.722 349.636,-520.016C349.649,-520.31 349.669,-520.604 349.699,-520.896C349.759,-521.48 349.856,-522.055 349.987,-522.615C350.25,-523.734 350.655,-524.787 351.176,-525.709C351.696,-526.63 352.333,-527.42 353.047,-528.03C353.76,-528.64 354.551,-529.07 355.369,-529.293C355.811,-529.414 356.262,-529.474 356.713,-529.474" style="fill:none;stroke:white;stroke-width:0.78px;stroke-linecap:round;"/>
                    </g>
                    <g id="SPLINE13" serif:id="SPLINE" transform="matrix(9.03111,0,0,9.03111,-2741.51,4947.23)">
                        <path d="M367.342,-454.837C367.591,-454.837 367.839,-454.895 368.082,-455.011C368.598,-455.257 369.089,-455.766 369.507,-456.486C369.924,-457.207 370.269,-458.138 370.506,-459.192C370.625,-459.719 370.717,-460.274 370.781,-460.847C370.812,-461.134 370.837,-461.423 370.854,-461.715C370.872,-462.007 370.882,-462.303 370.884,-462.597C370.886,-462.891 370.885,-463.187 370.885,-463.482C370.885,-463.777 370.885,-464.071 370.885,-464.366C370.885,-464.956 370.885,-465.546 370.885,-466.136C370.885,-475.571 370.885,-485.007 370.885,-494.442C370.885,-499.16 370.885,-503.878 370.885,-508.596C370.885,-510.955 370.885,-513.313 370.885,-515.672C370.885,-516.852 370.886,-518.031 370.885,-519.211C370.884,-519.505 370.886,-519.801 370.9,-520.095C370.913,-520.389 370.936,-520.683 370.967,-520.974C371.031,-521.557 371.131,-522.132 371.265,-522.69C371.535,-523.807 371.944,-524.854 372.47,-525.77C372.996,-526.686 373.637,-527.469 374.355,-528.071C375.072,-528.673 375.864,-529.094 376.685,-529.308C377.11,-529.419 377.541,-529.474 377.972,-529.474" style="fill:none;stroke:white;stroke-width:0.78px;stroke-linecap:round;"/>
                    </g>
                    <g id="SPLINE14" serif:id="SPLINE" transform="matrix(9.03111,0,0,9.03111,-2741.51,4947.23)">
                        <path d="M349.626,-529.474C349.175,-529.474 348.725,-529.414 348.283,-529.293C347.464,-529.07 346.673,-528.64 345.96,-528.03C345.246,-527.42 344.61,-526.63 344.089,-525.709C343.568,-524.787 343.164,-523.734 342.901,-522.615C342.769,-522.055 342.673,-521.48 342.613,-520.896C342.583,-520.604 342.562,-520.31 342.55,-520.016C342.537,-519.722 342.539,-519.426 342.539,-519.131C342.539,-517.952 342.539,-516.772 342.539,-515.593C342.539,-513.234 342.539,-510.877 342.539,-508.517C342.539,-503.797 342.539,-499.083 342.539,-494.364C342.539,-484.926 342.539,-475.493 342.539,-466.056C342.539,-465.466 342.539,-464.878 342.539,-464.288C342.539,-463.993 342.539,-463.697 342.539,-463.402C342.538,-463.108 342.54,-462.813 342.537,-462.518C342.522,-461.339 342.386,-460.169 342.143,-459.121C341.901,-458.073 341.553,-457.149 341.132,-456.438C340.711,-455.727 340.218,-455.23 339.701,-454.995C339.469,-454.889 339.233,-454.837 338.996,-454.837" style="fill:none;stroke:white;stroke-width:0.78px;stroke-linecap:round;"/>
                    </g>
                    <g id="SPLINE15" serif:id="SPLINE" transform="matrix(9.03111,0,0,9.03111,-2741.51,4947.23)">
                        <path d="M370.885,-529.474C370.454,-529.474 370.023,-529.419 369.598,-529.308C368.777,-529.094 367.986,-528.673 367.268,-528.071C366.551,-527.469 365.909,-526.686 365.384,-525.77C364.858,-524.854 364.448,-523.807 364.179,-522.69C364.044,-522.132 363.944,-521.557 363.881,-520.974C363.849,-520.683 363.827,-520.389 363.813,-520.095C363.799,-519.801 363.798,-519.505 363.798,-519.211C363.799,-518.031 363.799,-516.852 363.799,-515.672C363.799,-513.313 363.799,-510.955 363.799,-508.596C363.799,-503.878 363.799,-499.16 363.799,-494.442C363.799,-485.007 363.799,-475.571 363.799,-466.136C363.799,-465.546 363.799,-464.956 363.799,-464.366C363.799,-464.071 363.799,-463.777 363.799,-463.482C363.798,-463.187 363.8,-462.891 363.798,-462.597C363.796,-462.303 363.785,-462.007 363.768,-461.715C363.75,-461.423 363.726,-461.134 363.694,-460.847C363.63,-460.274 363.538,-459.719 363.419,-459.192C363.182,-458.138 362.838,-457.207 362.42,-456.486C362.002,-455.766 361.512,-455.257 360.996,-455.011C360.753,-454.895 360.504,-454.837 360.256,-454.837" style="fill:none;stroke:white;stroke-width:0.78px;stroke-linecap:round;"/>
                    </g>
                    <g id="SPLINE16" serif:id="SPLINE" transform="matrix(9.03111,0,0,9.03111,-2741.51,4947.23)">
                        <path d="M342.539,-547.799C342.539,-538.341 342.539,-528.883 342.539,-519.426" style="fill:none;stroke:white;stroke-width:0.78px;stroke-linecap:round;"/>
                    </g>
                    <g id="SPLINE17" serif:id="SPLINE" transform="matrix(9.03111,0,0,9.03111,-2741.51,4947.23)">
                        <path d="M385.058,-434.413L377.972,-434.413" style="fill:none;stroke:white;stroke-width:0.78px;stroke-linecap:round;"/>
                    </g>
                    <g id="SPLINE18" serif:id="SPLINE" transform="matrix(9.03111,0,0,9.03111,-2741.51,4947.23)">
                        <path d="M377.972,-434.413C377.972,-453.285 377.972,-472.155 377.972,-491.027C377.972,-495.745 377.972,-500.462 377.972,-505.181C377.972,-509.899 377.971,-514.615 377.973,-519.334C377.973,-519.629 377.967,-519.923 377.951,-520.218C377.935,-520.512 377.91,-520.805 377.876,-521.096C377.808,-521.677 377.703,-522.25 377.564,-522.806C377.285,-523.917 376.865,-524.959 376.331,-525.865C375.798,-526.771 375.151,-527.542 374.429,-528.132" style="fill:none;stroke:white;stroke-width:0.78px;stroke-linecap:round;"/>
                    </g>
                    <g id="SPLINE19" serif:id="SPLINE" transform="matrix(9.03111,0,0,9.03111,-2741.51,4947.23)">
                        <path d="M335.452,-547.799L342.539,-547.799" style="fill:none;stroke:white;stroke-width:0.78px;stroke-linecap:round;"/>
                    </g>
                    <g id="SPLINE20" serif:id="SPLINE" transform="matrix(9.03111,0,0,9.03111,-2741.51,4947.23)">
                        <path d="M346.083,-454.837C343.721,-454.837 341.358,-454.837 338.996,-454.837" style="fill:none;stroke:white;stroke-width:0.78px;stroke-linecap:round;"/>
                    </g>
                    <g id="SPLINE21" serif:id="SPLINE" transform="matrix(9.03111,0,0,9.03111,-2741.51,4947.23)">
                        <path d="M367.342,-454.837C364.98,-454.837 362.618,-454.837 360.256,-454.837" style="fill:none;stroke:white;stroke-width:0.78px;stroke-linecap:round;"/>
                    </g>
                    <g id="SPLINE22" serif:id="SPLINE" transform="matrix(9.03111,0,0,9.03111,-2741.51,4947.23)">
                        <path d="M349.626,-529.474C351.988,-529.474 354.35,-529.474 356.713,-529.474" style="fill:none;stroke:white;stroke-width:0.78px;stroke-linecap:round;"/>
                    </g>
                    <g id="SPLINE23" serif:id="SPLINE" transform="matrix(9.03111,0,0,9.03111,-2741.51,4947.23)">
                        <path d="M370.885,-529.474C373.248,-529.474 375.61,-529.474 377.972,-529.474" style="fill:none;stroke:white;stroke-width:0.78px;stroke-linecap:round;"/>
                    </g>
                    <g id="SPLINE24" serif:id="SPLINE" transform="matrix(9.03111,0,0,9.03111,-2741.51,4947.23)">
                        <path d="M338.996,-454.837C338.705,-454.837 338.414,-454.916 338.132,-455.074C337.621,-455.362 337.139,-455.908 336.733,-456.661C336.327,-457.415 335.997,-458.374 335.777,-459.445C335.667,-459.981 335.583,-460.544 335.529,-461.121C335.501,-461.41 335.482,-461.701 335.469,-461.995C335.456,-462.29 335.451,-462.583 335.452,-462.878C335.453,-463.468 335.452,-464.058 335.452,-464.648C335.452,-465.237 335.452,-465.827 335.452,-466.417C335.452,-467.596 335.452,-468.776 335.452,-469.955C335.452,-472.314 335.452,-474.673 335.452,-477.032C335.452,-481.75 335.452,-486.468 335.452,-491.186C335.452,-510.057 335.452,-528.926 335.452,-547.799" style="fill:none;stroke:white;stroke-width:0.78px;stroke-linecap:round;"/>
                    </g>
                    <g id="SPLINE25" serif:id="SPLINE" transform="matrix(9.03111,0,0,9.03111,-2741.51,4947.23)">
                        <path d="M360.256,-454.837C359.977,-454.837 359.698,-454.91 359.427,-455.055C358.914,-455.331 358.429,-455.867 358.02,-456.612C357.61,-457.356 357.277,-458.306 357.052,-459.373C356.939,-459.907 356.853,-460.467 356.796,-461.044C356.768,-461.332 356.746,-461.623 356.732,-461.916C356.718,-462.209 356.712,-462.504 356.712,-462.799C356.712,-463.389 356.712,-463.978 356.712,-464.568C356.712,-465.158 356.712,-465.748 356.712,-466.337C356.712,-467.517 356.712,-468.697 356.712,-469.876C356.712,-472.233 356.712,-474.594 356.712,-476.953C356.712,-481.671 356.712,-500.541 356.712,-505.26C356.712,-507.619 356.712,-509.977 356.712,-512.336C356.712,-513.515 356.712,-514.695 356.712,-515.875C356.712,-516.464 356.712,-517.053 356.712,-517.643C356.712,-518.234 356.712,-518.823 356.712,-519.413C356.713,-519.708 356.705,-520.002 356.687,-520.296C356.669,-520.59 356.643,-520.883 356.607,-521.174C356.535,-521.755 356.427,-522.326 356.285,-522.881C355.999,-523.99 355.574,-525.025 355.036,-525.926C354.509,-526.806 353.875,-527.555 353.169,-528.132" style="fill:none;stroke:white;stroke-width:0.78px;stroke-linecap:round;"/>
                    </g>
                    <g id="SPLINE26" serif:id="SPLINE" transform="matrix(9.03111,0,0,9.03111,-2741.51,4947.23)">
                        <path d="M356.713,-529.474C357.097,-529.474 357.481,-529.43 357.859,-529.343C358.681,-529.152 359.48,-528.754 360.206,-528.172C360.932,-527.59 361.583,-526.827 362.122,-525.926C362.661,-525.025 363.086,-523.99 363.371,-522.881C363.514,-522.326 363.622,-521.755 363.693,-521.174C363.729,-520.883 363.756,-520.59 363.774,-520.296C363.789,-520.032 363.797,-519.768 363.799,-519.503" style="fill:none;stroke:white;stroke-width:0.78px;stroke-linecap:round;"/>
                    </g>
                    <g id="SPLINE27" serif:id="SPLINE" transform="matrix(9.03111,0,0,9.03111,-2741.51,4947.23)">
                        <path d="M377.972,-529.474C378.374,-529.474 378.776,-529.426 379.173,-529.33C379.996,-529.129 380.792,-528.722 381.514,-528.133C382.237,-527.543 382.884,-526.772 383.418,-525.865C383.952,-524.959 384.371,-523.917 384.65,-522.806C384.789,-522.25 384.894,-521.677 384.963,-521.096C384.997,-520.805 385.022,-520.512 385.038,-520.218C385.054,-519.923 385.059,-519.629 385.059,-519.334C385.058,-514.615 385.059,-509.899 385.059,-505.181C385.058,-500.462 385.059,-495.745 385.058,-491.027C385.058,-472.155 385.058,-453.285 385.058,-434.413" style="fill:none;stroke:white;stroke-width:0.78px;stroke-linecap:round;"/>
                    </g>
                    <g id="SPLINE28" serif:id="SPLINE" transform="matrix(9.03111,0,0,9.03111,-2741.51,4947.23)">
                        <path d="M346.083,-454.837C346.319,-454.837 346.556,-454.889 346.788,-454.995C347.305,-455.23 347.798,-455.727 348.219,-456.438C348.639,-457.149 348.988,-458.073 349.23,-459.121C349.472,-460.169 349.608,-461.339 349.623,-462.518C349.627,-462.813 349.625,-463.108 349.625,-463.402C349.626,-463.697 349.625,-463.993 349.625,-464.288C349.625,-464.878 349.625,-465.466 349.625,-466.056C349.625,-475.493 349.625,-484.926 349.625,-494.364C349.625,-499.083 349.625,-503.797 349.625,-508.517C349.625,-510.877 349.625,-513.234 349.625,-515.593C349.625,-516.772 349.625,-517.952 349.625,-519.131C349.625,-519.426 349.624,-519.722 349.636,-520.016C349.649,-520.31 349.669,-520.604 349.699,-520.896C349.759,-521.48 349.856,-522.055 349.987,-522.615C350.25,-523.734 350.655,-524.787 351.176,-525.709C351.696,-526.63 352.333,-527.42 353.047,-528.03C353.76,-528.64 354.551,-529.07 355.369,-529.293C355.811,-529.414 356.262,-529.474 356.713,-529.474" style="fill:none;stroke:white;stroke-width:0.78px;stroke-linecap:round;"/>
                    </g>
                    <g id="SPLINE29" serif:id="SPLINE" transform="matrix(9.03111,0,0,9.03111,-2741.51,4947.23)">
                        <path d="M367.342,-454.837C367.591,-454.837 367.839,-454.895 368.082,-455.011C368.598,-455.257 369.089,-455.766 369.507,-456.486C369.924,-457.207 370.269,-458.138 370.506,-459.192C370.625,-459.719 370.717,-460.274 370.781,-460.847C370.812,-461.134 370.837,-461.423 370.854,-461.715C370.872,-462.007 370.882,-462.303 370.884,-462.597C370.886,-462.891 370.885,-463.187 370.885,-463.482C370.885,-463.777 370.885,-464.071 370.885,-464.366C370.885,-464.956 370.885,-465.546 370.885,-466.136C370.885,-475.571 370.885,-485.007 370.885,-494.442C370.885,-499.16 370.885,-503.878 370.885,-508.596C370.885,-510.955 370.885,-513.313 370.885,-515.672C370.885,-516.852 370.886,-518.031 370.885,-519.211C370.884,-519.505 370.886,-519.801 370.9,-520.095C370.913,-520.389 370.936,-520.683 370.967,-520.974C371.031,-521.557 371.131,-522.132 371.265,-522.69C371.535,-523.807 371.944,-524.854 372.47,-525.77C372.996,-526.686 373.637,-527.469 374.355,-528.071C375.072,-528.673 375.864,-529.094 376.685,-529.308C377.11,-529.419 377.541,-529.474 377.972,-529.474" style="fill:none;stroke:white;stroke-width:0.78px;stroke-linecap:round;"/>
                    </g>
                    <g id="SPLINE30" serif:id="SPLINE" transform="matrix(9.03111,0,0,9.03111,-2741.51,4947.23)">
                        <path d="M349.626,-529.474C349.175,-529.474 348.725,-529.414 348.283,-529.293C347.464,-529.07 346.673,-528.64 345.96,-528.03C345.246,-527.42 344.61,-526.63 344.089,-525.709C343.568,-524.787 343.164,-523.734 342.901,-522.615C342.769,-522.055 342.673,-521.48 342.613,-520.896C342.583,-520.604 342.562,-520.31 342.55,-520.016C342.537,-519.722 342.539,-519.426 342.539,-519.131C342.539,-517.952 342.539,-516.772 342.539,-515.593C342.539,-513.234 342.539,-510.877 342.539,-508.517C342.539,-503.797 342.539,-499.083 342.539,-494.364C342.539,-484.926 342.539,-475.493 342.539,-466.056C342.539,-465.466 342.539,-464.878 342.539,-464.288C342.539,-463.993 342.539,-463.697 342.539,-463.402C342.538,-463.108 342.54,-462.813 342.537,-462.518C342.522,-461.339 342.386,-460.169 342.143,-459.121C341.901,-458.073 341.553,-457.149 341.132,-456.438C340.711,-455.727 340.218,-455.23 339.701,-454.995C339.469,-454.889 339.233,-454.837 338.996,-454.837" style="fill:none;stroke:white;stroke-width:0.78px;stroke-linecap:round;"/>
                    </g>
                    <g id="SPLINE31" serif:id="SPLINE" transform="matrix(9.03111,0,0,9.03111,-2741.51,4947.23)">
                        <path d="M370.885,-529.474C370.454,-529.474 370.023,-529.419 369.598,-529.308C368.777,-529.094 367.986,-528.673 367.268,-528.071C366.551,-527.469 365.909,-526.686 365.384,-525.77C364.858,-524.854 364.448,-523.807 364.179,-522.69C364.044,-522.132 363.944,-521.557 363.881,-520.974C363.849,-520.683 363.827,-520.389 363.813,-520.095C363.799,-519.801 363.798,-519.505 363.798,-519.211C363.799,-518.031 363.799,-516.852 363.799,-515.672C363.799,-513.313 363.799,-510.955 363.799,-508.596C363.799,-503.878 363.799,-499.16 363.799,-494.442C363.799,-485.007 363.799,-475.571 363.799,-466.136C363.799,-465.546 363.799,-464.956 363.799,-464.366C363.799,-464.071 363.799,-463.777 363.799,-463.482C363.798,-463.187 363.8,-462.891 363.798,-462.597C363.796,-462.303 363.785,-462.007 363.768,-461.715C363.75,-461.423 363.726,-461.134 363.694,-460.847C363.63,-460.274 363.538,-459.719 363.419,-459.192C363.182,-458.138 362.838,-457.207 362.42,-456.486C362.002,-455.766 361.512,-455.257 360.996,-455.011C360.753,-454.895 360.504,-454.837 360.256,-454.837" style="fill:none;stroke:white;stroke-width:0.78px;stroke-linecap:round;"/>
                    </g>
                </g>
            </g>
        </g>
    </g>
</svg>
